<?xml version="1.0" encoding="UTF-8" standalone="no"?>
<svg
   xmlns:dc="http://purl.org/dc/elements/1.1/"
   xmlns:cc="http://creativecommons.org/ns#"
   xmlns:rdf="http://www.w3.org/1999/02/22-rdf-syntax-ns#"
   xmlns:svg="http://www.w3.org/2000/svg"
   xmlns="http://www.w3.org/2000/svg"
   xmlns:sodipodi="http://sodipodi.sourceforge.net/DTD/sodipodi-0.dtd"
   xmlns:inkscape="http://www.inkscape.org/namespaces/inkscape"
   version="1.0"
   width="900"
   height="900"
   id="svg2848"
   sodipodi:version="0.32"
   inkscape:version="1.0.2 (e86c870879, 2021-01-15)"
   sodipodi:docname="Wikimedian's_Group_of_China_Mainland_Draft_05.svg"
   inkscape:export-filename="/home/luc/git/zhongwen/images/huahua.png"
   inkscape:export-xdpi="13.653334"
   inkscape:export-ydpi="13.653334">
  <metadata
     id="metadata1970">
    <rdf:RDF>
      <cc:Work
         rdf:about="">
        <dc:format>image/svg+xml</dc:format>
        <dc:type
           rdf:resource="http://purl.org/dc/dcmitype/StillImage" />
        <dc:title></dc:title>
        <cc:license
           rdf:resource="http://creativecommons.org/licenses/by/4.0/" />
      </cc:Work>
      <cc:License
         rdf:about="http://creativecommons.org/licenses/by/4.0/">
        <cc:permits
           rdf:resource="http://creativecommons.org/ns#Reproduction" />
        <cc:permits
           rdf:resource="http://creativecommons.org/ns#Distribution" />
        <cc:requires
           rdf:resource="http://creativecommons.org/ns#Notice" />
        <cc:requires
           rdf:resource="http://creativecommons.org/ns#Attribution" />
        <cc:permits
           rdf:resource="http://creativecommons.org/ns#DerivativeWorks" />
      </cc:License>
    </rdf:RDF>
  </metadata>
  <sodipodi:namedview
     inkscape:window-height="730"
     inkscape:window-width="1366"
     inkscape:pageshadow="2"
     inkscape:pageopacity="0"
     guidetolerance="10.0"
     gridtolerance="10.0"
     objecttolerance="10.0"
     borderopacity="1.0"
     bordercolor="#666666"
     pagecolor="#ffffff"
     id="base"
     height="900px"
     width="900px"
     inkscape:zoom="0.31280766"
     inkscape:cx="699.6726"
     inkscape:cy="274.92933"
     inkscape:window-x="0"
     inkscape:window-y="38"
     inkscape:current-layer="layer1"
     inkscape:pagecheckerboard="true"
     showgrid="false"
     inkscape:window-maximized="0"
     inkscape:document-rotation="0" />
  <defs
     id="defs2850" />
  <path
     d="m 450,30.9 c -143.01392,0 -269.36038,71.75666 -345.00079,181.20255 l 81.02599,46.79949 C 245.27869,177.21719 341.44312,124.03334 450,124.03334 c 108.55688,0 204.72132,53.18385 263.97478,134.8687 l 81.02601,-46.79949 C 719.36038,102.65666 593.01393,30.9 450,30.9 Z"
     style="fill:#2f53bd;fill-opacity:1;stroke:none;stroke-width:20;stroke-linecap:round;stroke-linejoin:round;stroke-miterlimit:4;stroke-dasharray:none;stroke-opacity:1"
     id="path4005" />
  <path
     d="M 60.877292,294.2345 C 41.562269,342.39993 30.9,394.95827 30.9,449.99999 c 0,215.60706 163.07414,393.35527 372.53334,416.53883 v -93.94825 c -157.88826,-22.62852 -279.4,-158.47532 -279.4,-322.59058 0,-38.08367 6.54784,-74.63358 18.56845,-108.61674 z"
     style="fill:#2f53bd;fill-opacity:1;stroke:none;stroke-width:20;stroke-linecap:round;stroke-linejoin:round;stroke-miterlimit:4;stroke-dasharray:none;stroke-opacity:1"
     id="path4003" />
  <path
     d="m 839.12272,294.2345 -81.72451,47.14875 c 12.02062,33.98316 18.56846,70.53307 18.56846,108.61674 0,164.11524 -121.51174,299.96206 -279.4,322.59058 v 93.94825 C 706.02584,843.35526 869.09998,665.60705 869.1,449.99999 869.1,394.95827 858.43772,342.39993 839.12272,294.2345 Z"
     style="fill:#2f53bd;fill-opacity:1;stroke:none;stroke-width:20;stroke-linecap:round;stroke-linejoin:round;stroke-miterlimit:4;stroke-dasharray:none;stroke-opacity:1"
     id="path3918" />
  <g
     inkscape:groupmode="layer"
     id="layer1"
     inkscape:label="Layer 1"
     style="display:inline">
    <circle
       style="fill:#ffffff;fill-opacity:1;stroke:#191b72;stroke-width:61.8;stroke-miterlimit:4;stroke-dasharray:none;stroke-opacity:1;stop-color:#000000"
       id="path1837"
       cx="450"
       cy="450"
       r="419.10001" />
  </g>
  <g
     inkscape:groupmode="layer"
     id="layer2"
     inkscape:label="Layer 2"
     style="display:inline">
    <path
       id="path7612"
       style="fill:#ff70fc;fill-opacity:1;stroke:none;stroke-width:2.79999;stroke-miterlimit:4;stroke-dasharray:none;stroke-opacity:1"
       d="m 448.02273,40.224248 c -7.72661,0.11368 -15.44274,0.959006 -23.00321,2.561167 -1.48531,0.318925 -3.16684,0.704633 -4.71666,1.09829 -5.19419,1.313044 -10.40327,3.039917 -15.30518,5.00267 -5.39931,2.172743 -10.67023,4.743759 -15.6833,7.596483 -6.00208,3.412027 -11.73801,7.283941 -17.19713,11.508582 -1.78191,1.392141 -3.67184,2.923104 -5.44756,4.426745 -1.32448,1.088841 -2.51861,2.154282 -3.8607,3.26761 -1.11023,0.961308 -2.35461,1.913286 -3.88317,1.995112 -2.07898,0.16663 -4.0926,-0.546703 -6.13623,-0.807676 -4.717,-0.827122 -9.45655,-1.711668 -14.17658,-2.219072 -2.83939,-0.297764 -5.69117,-0.459046 -8.54218,-0.596319 -0.95247,-0.03147 -2.15629,-0.08344 -3.20641,-0.0977 -3.44538,-0.07711 -6.94111,-0.03956 -10.31587,0.08783 -1.14325,0.03945 -2.33907,0.105473 -3.55955,0.184144 -6.16177,0.352831 -12.29963,1.222058 -18.27393,2.789094 -11.14699,2.822923 -21.99052,6.949771 -32.06816,12.503121 -5.87231,3.22781 -11.35639,7.116188 -16.57071,11.314811 12.38699,2.53917 24.401,6.98804 35.38347,13.26442 4.18015,2.39981 8.11169,5.19325 12.01085,8.018 4.41218,-1.13367 8.71761,-2.67261 13.19599,-3.55001 26.70116,-5.91428 55.25212,-2.22691 79.88788,9.50861 16.93031,8.03324 32.05782,19.89149 43.73833,34.55919 0.23761,0.62847 0.76061,0.45151 1.26978,0.31352 10.31969,-1.88865 20.92938,-2.04207 31.33136,-0.76341 2.13623,0.30041 4.26397,0.66176 6.38037,1.07992 8.10692,-9.57721 16.98322,-18.68312 27.49987,-25.62644 17.94502,-12.23585 39.09273,-19.88436 60.79838,-21.35228 11.48075,-0.83172 23.06071,0.0893 34.31682,2.45809 4.87732,0.94316 9.72334,2.06032 14.49648,3.44011 4.18859,-2.64774 8.07859,-5.76033 12.4417,-8.13315 10.8831,-6.2767 22.7931,-10.76816 35.10905,-13.25113 -6.47415,-5.17066 -13.34794,-9.896147 -20.81292,-13.527234 -10.57452,-5.253404 -21.82806,-9.16458 -33.40086,-11.520545 -6.01526,-1.182236 -12.15352,-1.546709 -18.26833,-1.768077 -3.63728,-0.106885 -7.43499,-0.08723 -11.13175,0.04111 -1.64082,0.04911 -3.37333,0.142726 -4.90734,0.241995 -5.11859,0.298045 -10.19331,1.068022 -15.22412,2.036836 -2.67272,0.474645 -5.34312,1.034369 -8.02863,1.390151 -2.78556,-0.246768 -4.996,-2.129187 -7.00071,-3.904708 -11.36685,-9.695054 -23.9172,-18.157671 -37.72375,-23.970724 -3.55862,-1.505906 -7.24889,-2.851971 -10.88147,-3.982032 -1.62979,-0.508762 -3.45231,-1.033149 -5.17615,-1.485323 -3.28884,-0.869023 -6.73938,-1.618629 -10.00895,-2.198173 -4.62483,-0.816353 -9.41696,-1.390111 -14.16099,-1.691681 -1.12161,-0.06583 -2.48016,-0.142319 -3.69381,-0.175593 -1.83059,-0.06536 -3.66242,-0.07792 -5.49402,-0.06633 z m 228.06753,83.701762 c -1.85682,0.0635 -3.6505,0.15978 -5.54439,0.29868 -9.16768,0.68112 -18.51346,2.34325 -27.18689,5.69314 -7.80744,2.96367 -15.07514,7.2639 -21.60074,12.46023 -0.62347,0.51194 -1.464,1.18686 -2.17252,1.75822 -2.88337,2.3256 -5.7689,4.64848 -8.65605,6.96939 -8.40458,-2.60135 -16.71086,-5.64264 -25.38666,-7.24596 -6.72792,-1.2853 -13.57302,-2.22323 -20.43826,-1.93277 -5.53476,0.17842 -10.90917,0.85244 -16.32639,1.91182 -1.89826,0.37812 -3.85716,0.82711 -5.6435,1.29005 -0.96454,0.24383 -1.83924,0.49039 -2.84685,0.77623 -17.22801,4.96623 -33.26644,14.39352 -45.49851,27.5599 8.09255,4.82178 15.14726,11.2905 21.01619,18.63567 3.33715,4.1916 6.26945,8.70462 8.74645,13.45531 11.58429,-4.627 24.367,-6.06133 36.72299,-4.5221 8.3041,1.05154 16.36797,3.6789 23.82001,7.46759 7.90288,3.99716 15.2542,9.17812 21.42161,15.55203 5.41739,5.72336 9.81799,12.32478 13.73866,19.13685 1.53298,2.72288 2.92609,5.52538 4.15313,8.39933 11.77338,-1.2698 23.76635,-0.15168 35.18261,2.9403 4.54924,1.26365 9.00152,2.87864 13.28855,4.85779 4.02637,-3.68536 8.03725,-7.45433 12.70922,-10.32246 6.00349,-3.8746 12.3607,-7.19561 18.90889,-10.04824 21.24792,-8.92174 45.70798,-9.36771 67.50776,-2.12339 16.55675,5.44388 31.63215,15.27695 43.33722,28.18396 -4.86948,-7.90375 -10.72082,-15.23349 -17.5329,-21.55157 -4.79397,-4.42861 -10.10775,-8.16944 -15.55142,-11.74837 -4.50095,-2.88665 -9.04732,-5.75835 -13.98344,-7.85349 -3.05655,-1.32025 -6.13688,-2.60204 -9.20901,-3.87337 -1.33155,-0.32341 -2.08896,-1.77892 -1.85153,-3.0842 -0.0539,-5.6378 0.18189,-11.29353 -0.38746,-16.91317 -0.079,-0.69268 -0.1862,-1.65591 -0.30131,-2.45397 -0.77993,-5.44511 -2.08791,-10.97122 -3.84737,-16.26149 -3.61534,-10.92479 -9.4813,-21.10734 -17.22084,-29.63172 -8.39168,-9.31391 -18.92005,-16.6731 -30.53606,-21.38545 -7.58431,-3.10719 -15.58639,-5.22611 -23.73068,-6.17103 -1.56712,-0.16621 -3.42919,-0.26427 -5.10051,-0.22374 z m -454.17234,0.009 c -0.85011,0.0263 -1.79648,0.0945 -2.51001,0.15713 -6.25958,0.59804 -12.40321,2.11017 -18.38132,4.02477 -10.80104,3.55416 -20.93564,9.2018 -29.48434,16.7167 -1.22703,1.07006 -2.56107,2.31709 -3.76989,3.51929 -6.25818,6.2266 -11.48029,13.47966 -15.48615,21.34296 -0.20941,0.43213 -0.52802,1.04395 -0.74009,1.4907 -2.83384,5.82129 -5.0154,11.95526 -6.55051,18.24373 -0.31958,1.33771 -0.66992,2.8836 -0.94125,4.31537 -0.61871,3.13224 -1.00786,6.30849 -1.1215,9.50002 -0.0161,0.46273 -0.0454,1.32997 -0.0587,1.8721 -0.1244,3.69593 0.0373,7.40126 -0.10719,11.09297 -0.34271,2.47914 -2.42661,4.38872 -4.75716,5.06299 -5.07507,2.15045 -10.21493,4.22115 -14.93097,7.10536 -14.71801,8.43279 -27.649878,20.16327 -36.868613,34.45013 -0.418206,0.63096 -0.813796,1.27635 -1.216506,1.9172 13.825917,-15.13494 32.309329,-26.09686 52.395689,-30.39162 6.9103,-1.46875 13.96608,-2.20716 21.02207,-2.44352 6.1283,-0.16793 12.29293,0.24083 18.28589,1.57855 10.28852,2.20801 20.23163,5.92098 29.59409,10.70382 6.19468,3.23072 12.14336,7.04218 17.23279,11.85911 1.20986,1.1153 2.41434,2.23629 3.63605,3.33849 7.04654,-3.27973 14.46093,-5.9124 22.18258,-7.01092 8.67826,-1.34854 17.50018,-1.28927 26.25039,-0.88358 4.74115,-11.6432 12.43769,-21.92707 21.55779,-30.50975 6.7898,-6.35282 14.53632,-11.82095 23.1803,-15.33609 6.90062,-2.77227 14.27363,-4.18792 21.65016,-4.92852 5.37755,-0.46774 10.8429,-0.57901 16.16679,0.44381 4.64625,0.85852 9.21407,2.1028 13.74405,3.43485 1.17118,0.35754 2.33571,0.73656 3.49546,1.12939 3.13973,-5.99518 6.92009,-11.66535 11.42209,-16.72654 5.32289,-6.05457 11.53673,-11.34045 18.44061,-15.51178 -4.15887,-4.55628 -8.63194,-8.87369 -13.74068,-12.36016 -0.94392,-0.68604 -1.74979,-1.22922 -2.72936,-1.89159 -8.18528,-5.48583 -17.18217,-9.75234 -26.59503,-12.66233 -0.53511,-0.16304 -1.23789,-0.37931 -1.79383,-0.53357 -5.74914,-1.65547 -11.64383,-2.81383 -17.59683,-3.41732 -0.44523,-0.0371 -1.2241,-0.11343 -1.79718,-0.16552 -4.21085,-0.35714 -8.44351,-0.44055 -12.66577,-0.26922 -0.44821,0.0281 -1.22886,0.0649 -1.80446,0.0964 -0.70702,0.0494 -1.69859,0.11074 -2.51385,0.18967 -8.25094,0.68671 -16.36737,2.58012 -24.17999,5.29339 -2.78374,0.91235 -5.53565,1.94444 -8.3603,2.71886 -2.30154,0.4425 -4.48143,-0.85935 -6.09458,-2.3802 -5.89953,-4.755 -11.68255,-9.75753 -18.37315,-13.39352 -1.18582,-0.66719 -2.41857,-1.31375 -3.56036,-1.86891 -0.59907,-0.30212 -1.14511,-0.55295 -1.80368,-0.86397 -0.74239,-0.33553 -1.72884,-0.77538 -2.5746,-1.1285 -5.22976,-2.18258 -10.69011,-3.80521 -16.25217,-4.88515 -0.94767,-0.18477 -1.96492,-0.36343 -2.93978,-0.52526 -5.9339,-0.95286 -11.94589,-1.48704 -17.95701,-1.51022 z m 226.27216,63.2106 c -1.47693,0.0354 -2.88485,0.0499 -4.2564,0.1271 -6.78658,0.30106 -13.63969,1.42651 -19.83584,4.32157 -4.70214,2.19306 -9.16678,4.96073 -13.07741,8.38082 -4.95473,4.43915 -8.9774,9.83112 -12.39005,15.51679 -2.45126,4.14922 -4.23887,8.6601 -5.49038,13.30774 -1.14029,3.99131 -2.36436,7.9584 -3.53479,11.94131 -5.81965,-2.79896 -11.52375,-5.82839 -17.31698,-8.68032 -1.3857,-0.66592 -2.95136,-1.42733 -4.42636,-2.08832 -4.83779,-2.12539 -10.01288,-3.48536 -15.26625,-4.04903 -0.93159,-0.0961 -2.10759,-0.19715 -3.14098,-0.23473 -2.17621,-0.0918 -4.35868,-0.0187 -6.52523,0.20382 -0.69868,0.0792 -1.67499,0.19177 -2.47745,0.32448 -0.41363,0.0717 -0.95844,0.1569 -1.41611,0.24824 -1.13465,0.2148 -2.11572,0.43601 -3.26693,0.73942 -7.41084,1.96592 -14.34863,5.70919 -20.08454,10.79339 -3.27636,2.94499 -6.03285,6.40973 -8.71135,9.89176 -2.38703,3.21735 -4.7354,6.6998 -6.57113,10.12284 0.33114,0.29505 1.00162,0.48557 1.46532,0.74631 5.07716,2.46282 9.94766,5.35195 14.59292,8.55232 15.00511,10.6291 26.71436,25.95598 32.61954,43.40224 0.97927,2.85043 1.78217,5.75845 2.49731,8.68523 6.42426,0.51405 12.84269,1.4063 19.0614,3.13597 7.42734,-12.43989 18.05073,-22.9076 30.48272,-30.32611 7.19256,-4.31139 15.00314,-7.54203 23.03998,-9.90083 4.11942,-1.18753 8.34344,-2.05681 12.63235,-2.28467 5.71901,-0.36659 11.45417,-0.18418 17.18065,-0.21332 9.64036,0.11031 19.43734,1.045 28.504,4.52197 11.14257,4.04195 21.49954,10.24861 30.25727,18.2425 6.4486,5.83201 12.11989,12.5414 16.679,19.94955 5.78685,-1.579 11.73207,-2.49951 17.69962,-3.04975 0.42438,-0.1373 1.15656,0.0761 1.35666,-0.32766 1.42855,-5.31977 3.00764,-10.63429 5.38768,-15.61334 8.39917,-18.53823 23.11481,-34.26005 41.34851,-43.39332 1.44231,-0.72504 2.91507,-1.38732 4.39768,-2.02527 -4.1638,-7.47976 -9.15299,-14.62558 -15.58178,-20.34094 -6.74552,-6.08764 -15.29754,-10.09768 -24.26886,-11.49302 -7.77479,-1.2588 -15.84795,-0.56443 -23.29361,2.00522 -5.97635,2.05949 -11.46791,5.24134 -17.12302,8.01802 -2.84368,1.43607 -5.68947,2.87103 -8.53318,4.30821 -2.00708,-5.69116 -3.63334,-11.46515 -5.68234,-17.13141 -2.85072,-8.01662 -7.67324,-15.28795 -13.7938,-21.18241 -0.27547,-0.25944 -0.80805,-0.77014 -1.19349,-1.11347 -5.99049,-5.45715 -13.15687,-9.64748 -20.89142,-12.08074 -5.91943,-1.81778 -12.18013,-1.89693 -18.31895,-1.96337 -0.91135,-0.008 -1.82265,-7.6e-4 -2.73398,0.006 z M 158.60545,258.1235 c -0.7339,0.0259 -1.61541,0.0422 -2.20349,0.072 -11.53851,0.53401 -22.96804,3.63889 -33.12898,9.14683 -0.32832,0.17945 -0.97688,0.5442 -1.42778,0.79458 -8.68911,4.98447 -16.33963,11.7669 -22.326671,19.79843 -0.588063,0.79713 -1.306652,1.79591 -1.913222,2.69449 -3.365774,4.91295 -5.962965,10.31443 -7.955044,15.91843 -1.751469,4.789 -3.14088,9.73753 -3.693929,14.81877 -0.416206,3.46067 -0.933178,6.99803 -2.596013,10.11401 -1.567547,3.22275 -4.389202,5.5676 -7.249321,7.61011 -2.69108,1.8907 -5.487597,3.65029 -7.937909,5.85927 -6.617698,5.56039 -12.363434,12.14793 -17.060248,19.39974 -2.774731,4.2857 -4.871713,8.98095 -6.373305,13.85516 -2.93374,9.2051 -4.904906,18.84817 -4.46702,28.55152 0.04399,1.44182 0.189463,3.30632 0.330084,4.73115 0.540385,5.1269 1.611832,10.19396 3.141431,15.11598 7.287793,-7.51055 16.116932,-13.46046 25.636026,-17.76867 9.594541,-4.30674 19.957078,-6.96721 30.46209,-7.60789 7.324971,-0.39679 14.651541,0.27159 21.930161,1.04183 4.67464,-6.70837 10.69278,-12.35732 17.01736,-17.48625 8.36341,-6.67653 17.92255,-11.85412 28.11388,-15.13173 19.19099,-6.27664 40.47238,-6.33695 59.55107,0.39959 9.78015,3.57759 18.6888,9.20353 26.83319,15.63186 3.16985,2.54776 6.16196,5.31245 9.00304,8.22091 0.92994,-0.50518 1.97809,-0.93167 2.80856,-1.54252 0.32779,-5.61924 2.0777,-11.03029 3.96203,-16.29346 2.34377,-6.26533 5.11805,-12.39516 8.5886,-18.12144 3.78101,-6.02064 8.57098,-11.35555 13.7578,-16.19423 9.6226,-8.86871 21.2609,-15.62208 33.87353,-19.18811 -0.56799,-2.0109 -1.29648,-4.1662 -1.99545,-6.00819 -0.41297,-1.06073 -0.80634,-2.01736 -1.28739,-3.09957 -1.18814,-2.69231 -2.63645,-5.26091 -4.22421,-7.73628 -0.22959,-0.34827 -0.64685,-0.98917 -0.95776,-1.44089 -8.32615,-12.22711 -21.05445,-21.59803 -35.49635,-25.10706 -7.70334,-1.84766 -15.70764,-1.99098 -23.57688,-1.45391 -5.984,0.4161 -11.81975,2.12215 -17.25341,4.62468 -4.69766,2.12185 -9.18897,4.68023 -13.89659,6.7738 -2.0443,0.56102 -4.36505,0.64643 -6.27272,-0.37938 -3.38739,-3.19554 -6.67635,-6.49415 -10.08984,-9.6621 -2.67695,-2.47726 -5.56586,-4.97026 -8.59524,-7.1144 -10.11717,-7.22656 -22.01968,-12.04589 -34.40493,-13.40933 -2.86244,-0.3246 -5.74475,-0.46105 -8.62515,-0.42765 z m 579.73499,0.0401 c -1.60224,0.0477 -3.38153,0.17712 -4.86041,0.32924 -2.31141,0.2412 -4.70447,0.61798 -6.88962,1.0728 -1.80809,0.37389 -3.84262,0.877 -5.71544,1.43195 -2.01332,0.59189 -4.09821,1.30698 -5.96104,2.03655 -8.1772,3.17076 -15.75837,7.82029 -22.3871,13.55421 -0.27172,0.24715 -0.83815,0.74029 -1.22268,1.08161 -4.01419,3.66531 -7.80808,7.56363 -11.7209,11.33589 -0.72635,0.71051 -1.45262,1.4211 -2.17783,2.13277 -6.85094,-3.18015 -13.37536,-6.94088 -20.34782,-9.8511 -6.54978,-2.8406 -13.74413,-3.84145 -20.8413,-3.83766 -2.83184,-0.0358 -5.66513,0.0511 -8.48807,0.28084 -0.3087,0.0354 -1.08103,0.0985 -1.40559,0.13599 -6.98897,0.72446 -13.83679,2.74284 -20.07936,5.97252 -13.0156,6.667 -23.5101,18.12503 -29.01573,31.67172 -0.92074,2.29592 -1.70859,4.6443 -2.38341,7.02382 7.23654,2.04401 14.05059,5.38073 20.47333,9.25376 6.85949,4.17775 13.30101,9.15232 18.57087,15.24595 8.15409,9.38683 14.8391,20.24106 18.42973,32.20325 1.10356,3.57411 1.79274,7.25591 2.28976,10.95834 0.10989,0.74281 0.21878,1.48591 0.34005,2.2269 0.96508,0.46706 1.91296,0.96869 2.85585,1.47884 5.95728,-5.89773 12.26898,-11.51868 19.43149,-15.92343 10.34065,-6.47781 22.13809,-10.61675 34.26887,-11.96303 9.32576,-1.11298 18.79054,-0.98753 28.10053,0.21205 12.3411,1.85714 24.13541,6.72221 34.55832,13.52833 7.50709,4.94489 14.43421,10.83027 20.27918,17.67285 1.41384,1.66855 2.76666,3.38842 4.06752,5.14627 7.858,-1.30723 15.87256,-2.00732 23.82517,-1.22803 20.19581,1.77963 39.66413,10.8872 53.9539,25.27171 1.12311,-3.51841 2.03059,-7.01126 2.60941,-10.69669 1.18566,-7.66951 1.15182,-15.51637 0.0154,-23.18964 -0.0972,-0.58772 -0.22884,-1.47573 -0.35798,-2.17556 -2.45127,-13.94189 -8.61826,-27.37865 -18.39855,-37.70253 -4.9414,-5.39673 -10.52827,-10.21494 -16.70686,-14.14525 -3.32911,-2.25717 -6.31868,-5.28967 -7.65625,-9.15999 -1.85146,-4.98003 -1.55184,-10.41842 -3.04013,-15.48858 -2.36702,-8.954 -6.12267,-17.59618 -11.53681,-25.13866 -8.08046,-11.33547 -19.51621,-20.2064 -32.44949,-25.33561 -9.64326,-3.82109 -20.05468,-5.70274 -30.42703,-5.42239 z m -291.39456,46.52296 c -8.00837,-0.009 -15.96813,1.66632 -23.43142,4.52462 -8.20637,3.15534 -15.74479,8.04775 -21.89006,14.34335 -2.49388,2.52359 -4.77888,5.30673 -6.77782,8.15956 -2.86231,4.04786 -5.06003,8.50269 -7.30665,12.90644 -1.08224,1.99034 -2.27481,4.13339 -4.41202,5.14584 -2.58329,1.37647 -5.6915,1.30074 -8.43059,0.45519 -5.98493,-1.42536 -11.66495,-4.05056 -17.79003,-4.88905 -3.20649,-0.3377 -6.43979,-0.26068 -9.65953,-0.29931 -1.79792,0.0186 -3.50144,0.0561 -5.30062,0.16817 -1.51771,0.10613 -3.23736,0.26991 -4.81824,0.51878 -9.15794,1.39857 -17.73943,5.60332 -24.97896,11.30661 -6.76094,5.42991 -12.40755,12.26927 -16.39033,19.97583 -0.77712,1.53359 -1.49661,3.09591 -2.10283,4.62673 -0.47638,1.19142 -0.90537,2.40195 -1.28858,3.62666 11.81004,-1.15835 23.8135,0.40768 35.09598,4.00365 8.38146,2.72253 16.43281,6.5835 23.60335,11.72605 5.84459,4.27698 11.06237,9.34789 15.97278,14.65381 2.14154,2.38599 4.16563,4.88508 5.94097,7.55739 10.35727,0.008 20.80736,-0.005 31.00049,2.07561 6.05195,1.15418 11.92851,3.0644 17.69481,5.20418 0.57396,0.3133 1.16983,-0.23034 1.75394,-0.3035 5.14551,-1.63081 10.37326,-3.1684 15.77927,-3.59824 9.35163,-1.0129 18.85043,-0.57357 28.0935,1.14104 3.76446,0.75105 7.45142,1.83131 11.14421,2.86792 7.9346,-2.67437 15.97214,-5.18325 24.27367,-6.42649 8.00972,-1.30181 16.17553,-1.66091 24.26662,-1.02782 4.2737,-5.79064 9.00722,-11.27763 14.45736,-15.99738 11.89049,-10.50223 26.54252,-18.09789 42.24302,-20.77026 7.87483,-1.32679 15.91557,-1.72744 23.87633,-1.05138 -4.16721,-13.61432 -13.62112,-25.53329 -25.97749,-32.62168 -9.52947,-5.56938 -20.65531,-8.33848 -31.68349,-7.89426 -6.36424,0.22681 -12.67775,1.50504 -18.65441,3.69674 -3.15176,1.02177 -6.30924,2.29174 -9.65832,2.42171 -3.65711,0.13049 -7.17023,-2.20118 -8.63462,-5.52615 -2.67734,-4.85404 -4.89781,-9.99309 -8.23691,-14.45368 -7.5267,-10.52711 -18.42665,-18.54495 -30.648,-22.76447 -4.59063,-1.64625 -9.44272,-2.61327 -14.26887,-2.9786 -4.27434,-0.38225 -8.52649,-0.54391 -12.85651,-0.50361 z m 255.24717,86.33204 c -7.66187,0.0896 -15.15795,2.16618 -22.25559,4.92771 -7.55639,3.0558 -14.54617,7.52626 -20.42929,13.17326 4.46352,4.09645 8.50132,8.65954 11.92914,13.65864 8.32172,11.95572 13.39776,26.06324 15.02066,40.51656 0.27137,1.93984 0.5478,3.87881 0.83922,5.81576 3.22001,2.0353 6.64698,3.73074 9.76704,5.92775 17.33854,11.52589 31.4838,27.84413 40.32162,46.70264 3.74353,8.07573 6.62892,16.57022 8.38342,25.30148 1.73658,9.1619 1.90321,18.53579 1.6984,27.83244 -0.2084,8.98881 -1.41073,17.9817 -3.99518,26.6073 -1.40252,4.81161 -3.24648,9.48228 -5.30122,14.04964 10.26837,-0.35739 20.63032,-0.18212 30.75432,1.7284 4.59831,0.87782 9.10214,2.29097 13.30177,4.37246 4.54949,2.03589 9.31035,3.93709 13.37475,6.94169 2.80316,1.99717 5.40122,4.26356 7.95166,6.57002 10.21053,-4.84962 19.2375,-12.53631 24.86062,-22.41824 0.94092,-1.63338 1.78747,-3.32035 2.55551,-5.04154 0.27212,-0.63458 0.65753,-1.5159 0.94237,-2.26191 1.27114,-3.21577 2.27102,-6.70486 2.92849,-9.9964 0.29501,-1.50498 0.52163,-2.8484 0.71829,-4.38333 0.80584,-5.6664 0.48003,-11.44724 -0.63549,-17.04834 -0.35254,-1.81666 -0.78215,-3.66322 -1.25243,-5.36418 -1.13223,-4.15607 -2.9,-8.11587 -5.09758,-11.81448 -1.57396,-2.94491 -2.54002,-6.54828 -1.25837,-9.78 1.24799,-3.36754 4.10938,-5.71328 6.62244,-8.1277 3.65611,-3.31964 7.42718,-6.57335 10.41177,-10.53887 1.80844,-2.2716 3.44365,-4.67858 4.91611,-7.18056 0.16552,-0.28601 0.5123,-0.89126 0.74463,-1.30611 5.98102,-10.78318 8.74154,-23.38653 7.43865,-35.67424 -0.29991,-3.13218 -0.84796,-6.39425 -1.55298,-9.35894 -2.11432,-9.01725 -6.16934,-17.58879 -11.96,-24.8295 -3.14094,-3.93414 -6.77765,-7.46871 -10.79582,-10.50114 -0.45266,-0.34188 -1.15691,-0.86189 -1.71648,-1.25438 -7.27488,-5.10697 -15.5869,-8.74563 -24.27589,-10.61602 -2.23586,-0.44107 -4.66636,-0.64864 -6.84259,-0.75353 -3.49653,-0.12176 -7.07017,-0.16007 -10.49454,-0.0275 -0.65171,0.0211 -1.37991,0.0705 -2.11483,0.10567 -0.51318,0.0394 -1.32818,0.087 -1.96431,0.14899 -2.26923,0.23241 -4.56454,0.46403 -6.76876,1.057 -3.40076,3.0937 -8.96714,3.35493 -12.67097,0.63578 -3.57573,-2.44464 -5.58597,-6.40599 -8.04717,-9.84182 -2.85337,-3.90751 -6.26082,-7.37756 -9.76548,-10.69955 -3.47861,-3.19825 -7.13933,-6.27278 -11.34756,-8.47305 -4.55685,-2.43238 -9.37811,-4.36691 -14.33077,-5.82965 -1.37859,-0.40746 -2.97028,-0.82277 -4.44926,-1.16073 -5.29408,-1.21618 -10.72463,-1.8433 -16.15832,-1.79153 z m -507.27107,0.0309 c -6.14623,0.21674 -12.25825,1.24938 -18.14825,3.0141 -0.66424,0.19788 -1.58985,0.49173 -2.3463,0.7498 -5.35225,1.82282 -10.5443,4.18858 -15.3127,7.23617 -5.10909,3.48867 -9.43436,7.96689 -13.65132,12.45652 -2.53148,2.7961 -4.72082,5.87905 -6.71247,9.0764 -2.18549,3.17839 -5.10468,6.17987 -8.94546,7.18758 -3.35564,0.81223 -7.09643,-0.27793 -9.48656,-2.77103 -6.24151,-1.18958 -12.63092,-1.29224 -18.96456,-1.16434 -4.408976,0.0965 -8.815983,0.68828 -13.040412,1.97782 -1.741379,0.50684 -3.468955,1.09852 -5.09557,1.71677 -1.658093,0.64188 -3.300112,1.34473 -4.847664,2.07549 -0.455185,0.21474 -1.014189,0.48535 -1.515782,0.73632 -12.225385,6.01369 -22.35177,16.21615 -28.162637,28.54987 -4.504482,9.51575 -6.667283,20.12158 -6.357995,30.6393 0.609293,16.49392 8.277129,32.53987 20.573388,43.52282 3.126728,2.83316 6.471565,5.56734 8.745421,9.17391 1.771745,3.23698 1.290889,7.18435 -0.0336,10.48859 -1.719517,4.56542 -4.333203,8.77371 -5.579716,13.51963 -3.979875,13.29 -2.329317,28.04085 4.050896,40.31403 3.789549,7.35677 9.17182,13.88692 15.672479,19.00843 0.261776,0.20202 0.837901,0.6506 1.230966,0.94107 1.412446,1.0505 2.87644,2.02995 4.377043,2.94979 0.293785,0.16301 0.912964,0.54551 1.34157,0.78346 1.192991,0.6728 2.409922,1.30271 3.637063,1.91049 3.354892,-3.07215 6.80361,-6.09218 10.75037,-8.39056 3.82441,-2.25354 7.98169,-3.84877 12.00507,-5.69836 5.31664,-2.25721 10.95011,-3.74579 16.66147,-4.57608 4.79012,-0.67053 9.63254,-0.85565 14.46099,-1.03415 3.94484,-0.11274 7.893,-0.0979 11.8375,0.0229 -3.17786,-7.26306 -5.75903,-14.8035 -7.51122,-22.53872 -2.17416,-10.30993 -2.38957,-20.91568 -2.04695,-31.41056 0.31071,-7.51137 1.38551,-15.01812 3.60909,-22.2124 6.268,-21.87854 19.04246,-41.91805 36.53965,-56.51759 6.20853,-5.21643 12.98994,-9.73185 20.09796,-13.62555 0.43178,-9.57256 2.79567,-18.96118 6.04828,-27.94167 2.56147,-6.97945 6.02266,-13.64717 10.47931,-19.60815 2.75911,-3.84913 5.79866,-7.53816 9.44838,-10.58058 0.68277,-0.63457 1.37047,-1.26389 2.04954,-1.90241 -7.0418,-6.40473 -15.38167,-11.36416 -24.37621,-14.48163 -1.58424,-0.55654 -3.19043,-1.04921 -4.80983,-1.49291 -0.36099,-0.0944 -1.06097,-0.27778 -1.5568,-0.40137 -4.94101,-1.20413 -10.0239,-1.85419 -15.11443,-1.70322 z m 105.45713,19.38154 c -1.76668,0.0209 -3.35529,0.0851 -5.10949,0.21514 -5.72887,0.41391 -11.41054,1.60735 -16.75873,3.72047 -7.13761,2.66121 -13.77407,6.68154 -19.34416,11.88743 -1.90833,1.72409 -3.83344,3.69767 -5.46161,5.53579 -4.46692,5.03558 -8.16629,10.77277 -10.67384,17.03035 -2.05255,5.03231 -3.38715,10.34503 -4.05832,15.73548 -0.10605,0.89081 -0.24588,2.03256 -0.33168,3.02466 -0.53647,5.30676 -0.65171,10.65167 -1.18566,15.95484 -0.3306,1.66596 -1.82267,2.76626 -3.33882,3.30359 -7.28115,3.61963 -14.75774,7.03119 -21.23314,12.02501 -14.29334,10.59246 -25.08365,25.70074 -30.8363,42.50788 -2.1859,6.24451 -3.68838,12.75798 -4.02937,19.37878 -0.40485,6.13177 -0.45409,12.29198 -0.11421,18.42781 0.17484,2.97205 0.59149,5.92687 1.33976,8.81052 1.28581,5.41032 3.00488,10.5903 5.07065,15.73079 0.64593,1.66088 1.38373,3.325 2.61456,4.64153 2.04887,2.83338 3.27431,6.14161 4.85505,9.23724 2.89937,6.1773 6.6201,11.92993 10.67131,17.40774 0.86688,1.16609 1.82064,2.3925 2.65485,3.44545 5.41974,6.75456 11.41015,13.05453 17.86203,18.83066 1.21435,1.07245 2.38515,2.07716 3.59596,3.07183 1.75185,1.43153 3.71484,2.97199 5.64102,4.3329 7.75801,5.44607 16.1849,9.84406 24.63583,14.0997 4.70832,2.36713 9.49499,4.65623 14.3194,6.65361 3.81186,1.58955 7.70923,3.0509 11.5781,4.32026 7.90246,2.5925 16.04538,4.47812 24.3053,5.47665 1.30472,0.15485 2.82921,0.31762 4.22411,0.42745 1.15185,0.0977 2.49825,0.16571 3.53216,0.22192 5.64532,0.20284 11.43765,0.12992 17.14433,-0.0945 1.7874,-0.0746 3.57528,-0.14193 5.36046,-0.26016 -8.07078,-8.6946 -15.18983,-18.26169 -21.36246,-28.38748 -3.43378,-5.72321 -6.37233,-11.72839 -8.98343,-17.86704 -2.73829,-6.08546 -5.39335,-12.23049 -7.28968,-18.63925 -3.28609,-10.50152 -5.84603,-21.2534 -7.27926,-32.17022 -1.08099,-9.53258 -1.02472,-19.14693 -0.89479,-28.72599 0.19097,-8.1888 0.52291,-16.41577 1.98603,-24.49121 3.46136,-17.65671 12.89566,-33.96457 26.00408,-46.22273 7.32329,-6.81233 15.91128,-12.25102 25.20159,-15.95699 8.27896,-3.41148 17.14141,-5.26008 26.05444,-5.92786 0.76315,-0.0732 1.52696,-0.1381 2.29067,-0.20535 2.68279,-6.2754 6.11987,-12.22584 10.25898,-17.65413 2.73952,-3.64156 5.7585,-7.0746 9.04072,-10.23677 -5.45296,-0.45098 -10.93223,-0.34436 -16.39875,-0.38104 -5.71156,0.002 -11.42313,0.004 -17.13471,0.005 -2.77145,-4.55979 -4.97012,-9.50079 -8.3638,-13.65713 -4.91248,-5.95614 -10.34802,-11.66541 -17.059,-15.60509 -3.55964,-2.12037 -7.30682,-3.9253 -11.18479,-5.38448 -0.37963,-0.14108 -0.97565,-0.36334 -1.39393,-0.50498 -4.73747,-1.74798 -9.7441,-2.69256 -14.78096,-2.95896 -1.87739,-0.11784 -3.75988,-0.13926 -5.6405,-0.12861 z m 294.53054,0.0964 c -5.09202,0.15843 -10.23824,0.80013 -14.99566,2.71251 -3.35103,1.21492 -6.6204,2.65414 -9.78471,4.29431 -0.35512,0.18567 -0.89585,0.4699 -1.27245,0.68132 -4.31265,2.28579 -8.28903,5.1863 -11.77426,8.60376 -3.15708,3.0822 -6.09234,6.39807 -8.77877,9.89699 -2.53606,3.54211 -4.41848,7.48723 -6.62386,11.2318 -0.78672,0.70177 -1.85973,0.77486 -2.85767,0.68758 -9.81911,0.0915 -19.64779,-0.21768 -29.46103,0.22721 -0.55632,0.0464 -1.11099,0.10971 -1.66406,0.18569 8.1905,7.89765 14.81855,17.42102 19.30699,27.87997 8.28945,0.67075 16.58573,1.9497 24.47065,4.66925 10.88258,3.65922 20.95408,9.71226 29.26539,17.63437 6.53662,6.03201 12.17174,13.07447 16.36043,20.93389 3.29075,6.03905 6.23396,12.32668 8.0592,18.97636 3.06776,11.20185 3.35409,22.90123 3.46386,34.44175 0.0425,10.37784 -0.27613,20.79543 -1.90691,31.06136 -1.09327,7.26516 -2.81938,14.4207 -4.92199,21.45577 -2.0548,7.07244 -4.54385,14.02824 -7.6636,20.7024 -3.00953,6.721 -6.07889,13.43289 -9.82148,19.7847 -6.08411,10.48235 -13.37395,20.26425 -21.66204,29.10709 1.28809,0.1033 2.62826,0.17596 3.82209,0.21841 5.39232,0.16025 10.79204,0.14735 16.18156,-0.10199 1.49392,-0.0766 3.1912,-0.17565 4.76017,-0.2948 1.72758,-0.13564 3.68595,-0.30293 5.49841,-0.51364 10.52377,-1.15573 20.88386,-3.69295 30.77253,-7.46941 10.86911,-4.10684 21.24021,-9.40479 31.42357,-14.96968 2.28153,-1.26753 4.65069,-2.65404 6.75778,-3.95033 5.98722,-3.67312 11.65387,-8.05548 16.76399,-12.76945 9.30619,-8.66169 18.02611,-18.13913 24.52047,-29.12989 0.89911,-1.50098 1.76111,-3.04507 2.56278,-4.50724 2.07025,-3.73333 3.77101,-7.66669 5.98964,-11.31697 0.70328,-1.15844 1.5515,-2.22951 2.40546,-3.26976 2.80639,-6.41829 5.23409,-13.03642 6.71724,-19.89443 0.20847,-0.99149 0.45018,-2.21739 0.63328,-3.30796 0.42948,-2.56125 0.76611,-5.15244 0.96937,-7.67719 0.61239,-7.36554 0.28079,-14.80821 -0.97327,-22.09175 -0.11652,-0.6556 -0.28562,-1.59817 -0.44459,-2.35936 -3.90529,-19.53045 -14.61283,-37.6594 -29.98926,-50.34562 -5.96873,-4.9753 -12.61475,-9.10376 -19.6259,-12.44055 -3.031,-1.52124 -6.06093,-3.04462 -9.09266,-4.5644 -0.4591,-6.61648 -0.50261,-13.25987 -1.15809,-19.86227 -1.13248,-10.45804 -4.97051,-20.66585 -11.35173,-29.05958 -4.29773,-5.68471 -9.44706,-10.74358 -15.25561,-14.87613 -6.63536,-4.63514 -14.24034,-7.91188 -22.18855,-9.45963 -2.89025,-0.54046 -5.99339,-0.83919 -8.81642,-1.0235 -0.82377,-0.0404 -1.56572,-0.0935 -2.31231,-0.11327 -2.10172,-0.077 -4.2059,-0.0864 -6.30798,-0.0177 z M 449.025,451.35333 c -7.43426,0.0591 -14.90677,1.39467 -21.73576,4.38991 -8.52306,3.57462 -16.18566,9.18401 -22.15695,16.2395 -0.24372,0.29155 -0.67929,0.8096 -0.94192,1.14781 -2.5014,3.11772 -4.68094,6.49647 -6.47964,10.06637 -0.28842,0.58947 -0.70009,1.43377 -1.01051,2.13481 -2.30995,5.03558 -3.67212,10.42211 -5.3876,15.67207 -0.26472,0.84444 -0.52946,1.68888 -0.79426,2.53331 -6.07024,0.10918 -12.14303,0.0328 -18.21195,0.2201 -1.64166,0.0436 -3.4684,0.13885 -5.17097,0.34908 -7.80683,0.8152 -15.36256,3.54388 -22.00602,7.70212 -0.57614,0.35688 -1.1762,0.75084 -1.63956,1.06539 -6.56646,4.42249 -11.88966,10.4822 -16.14613,17.11239 -1.71646,2.62675 -3.06386,5.46429 -4.31546,8.33421 -0.89723,2.08034 -1.98149,4.09374 -3.45132,5.82975 -1.14389,4.95796 -1.73581,10.02372 -2.34261,15.0698 -0.26309,2.43349 -0.49949,5.04157 -0.65875,7.55142 -0.11775,1.84867 -0.20696,3.88656 -0.24642,5.81096 -0.0711,3.19135 0.009,6.35108 0.16843,9.49328 0.18618,3.69381 0.51824,7.55971 0.94682,11.22963 0.57889,4.90901 1.36263,9.78309 2.32459,14.59017 0.70257,3.48336 1.52714,6.981 2.45642,10.34304 0.58793,2.10703 1.2244,4.20055 1.91724,6.27557 0.19319,0.56122 0.49173,1.40987 0.74209,2.07449 2.21906,5.89793 4.99417,11.56305 7.48009,17.34887 6.58624,14.55816 16.24834,27.62598 27.69851,38.72745 8.76426,8.47658 18.62873,15.87897 29.50747,21.42673 3.74592,1.92923 7.59328,3.65857 11.50689,5.21928 0.648,0.25259 1.56572,0.61563 2.24777,0.86954 9.84898,3.7288 20.10747,6.44836 30.56059,7.78707 5.25606,0.60717 10.53678,1.11227 15.83086,1.16695 5.5773,-0.0504 11.12945,-0.67569 16.66703,-1.28782 7.52331,-0.95837 14.96689,-2.54545 22.2227,-4.75402 1.3952,-0.43292 2.9819,-0.94009 4.43789,-1.44489 3.01333,-1.03466 6.11595,-2.2441 8.96094,-3.46644 5.84084,-2.51815 11.49636,-5.46774 16.8877,-8.84403 1.15849,-0.72452 2.47777,-1.58135 3.67465,-2.3951 9.71558,-6.57263 18.49046,-14.51786 26.04617,-23.4876 6.13846,-7.29617 11.6288,-15.45106 16.16554,-23.97455 0.85325,-1.60104 1.76175,-3.38435 2.58638,-5.08144 2.74621,-5.67287 5.21805,-11.60402 7.42363,-17.42882 0.65149,-1.76529 1.25113,-3.42721 1.84992,-5.23924 2.8966,-8.56274 4.88065,-17.43497 5.80689,-26.4292 0.94841,-9.05547 1.09031,-18.17892 0.83796,-27.27477 -0.0612,-1.84534 -0.14936,-3.87928 -0.25516,-5.79554 -0.33509,-5.41472 -0.77825,-10.84863 -1.95856,-16.15445 -0.14234,-0.30615 -0.76111,-0.6036 -1.06103,-0.94785 -2.05842,-1.83907 -3.25879,-4.55772 -3.32744,-7.30087 -1.52839,-3.83239 -3.5952,-7.43084 -5.83619,-10.88547 -2.85376,-4.01905 -6.4589,-7.42462 -10.04821,-10.77399 -6.96809,-6.21369 -15.84025,-10.09333 -25.00419,-11.646 -5.41989,-0.9773 -10.94369,-0.79121 -16.42217,-1.00511 -2.27144,-0.15231 -4.58757,-0.2936 -6.76651,-0.99329 -3.57101,-1.31256 -6.28421,-4.91901 -6.20282,-8.77309 -1.93214,-6.93782 -5.21216,-13.49148 -9.48903,-19.27889 -6.49724,-8.71715 -15.52857,-15.48674 -25.67895,-19.36653 -5.95648,-2.35166 -12.37249,-3.56786 -18.73969,-3.71037 -1.156,-0.041 -2.31278,-0.0476 -3.46939,-0.0417 z M 153.21026,641.56362 c -2.73854,0.0414 -5.6772,0.19152 -8.40019,0.44565 -4.08727,0.36356 -8.16073,0.91944 -12.17645,1.7699 -0.67217,0.15329 -1.6291,0.35514 -2.40359,0.55578 -3.57939,0.91908 -7.1883,1.93791 -10.44773,3.71707 -1.88997,1.22012 -3.35858,2.97402 -4.84903,4.63425 -2.7545,3.14999 -5.23918,6.68914 -6.31575,10.7883 -1.5503,5.73857 -0.62422,12.08385 2.52756,17.1265 1.86608,3.0192 4.29723,5.81301 7.50217,7.44736 2.3642,1.29691 4.75567,2.59419 7.30483,3.48929 2.65181,0.77377 5.45047,0.46127 8.17422,0.57845 3.13554,0.0312 6.3131,-0.4292 9.18311,-1.74069 3.43684,-1.33655 7.1445,-2.71305 10.8847,-1.98948 3.89878,0.83562 7.04584,4.46645 7.30356,8.3955 0.47415,3.48946 -1.04636,6.79645 -1.40756,10.21211 -0.18423,2.09208 -0.34815,4.30345 -0.40633,6.30127 -0.15338,6.30187 -0.16598,12.74467 1.72476,18.82453 1.35868,4.42623 3.32388,8.64533 5.48679,12.7298 1.5965,2.80396 3.59286,5.35983 5.73286,7.7668 0.27042,0.30327 0.66135,0.73588 0.97308,1.06746 3.66095,3.90364 7.6765,7.53516 12.2267,10.37792 1.30126,0.80939 2.70488,1.56059 4.00046,2.18125 4.8829,2.40043 10.00723,4.4806 15.43549,5.20545 4.50644,0.56939 9.06603,0.55998 13.59989,0.43489 2.09226,-0.0677 4.35015,-0.13147 6.47043,-0.54993 2.96313,-0.48484 5.83814,-1.37491 8.75337,-2.06385 4.11007,-0.87371 8.45952,1.37398 10.55703,4.92574 1.29557,2.11075 1.57123,4.62847 1.94088,7.02684 0.39497,3.59493 0.60782,7.23123 1.57119,10.73513 0.75701,2.94297 1.85389,5.79811 3.28193,8.48089 0.22415,0.40535 0.59844,1.08595 0.91034,1.58631 4.46558,7.29962 11.65907,12.68493 19.59815,15.70643 2.50904,0.85079 5.10946,1.40533 7.69413,1.96601 2.37967,0.28099 4.77539,-0.0737 7.15525,-0.19343 2.053,-0.18527 4.10067,-0.44374 6.12649,-0.82792 -0.95008,-9.67923 -0.76103,-19.44986 0.17415,-29.12228 0.60602,-6.195 1.88149,-12.32629 3.91202,-18.21365 4.60636,-14.00255 11.98988,-27.0966 21.7046,-38.19161 3.78741,-4.33113 7.91084,-8.3719 12.35023,-12.03325 -9.92435,0.35088 -19.88673,0.0403 -29.74628,-1.17509 -9.8669,-1.3561 -19.56296,-3.80994 -29.01073,-6.9368 -13.00334,-4.40587 -25.40269,-10.38175 -37.60733,-16.62372 -16.01401,-8.4217 -30.49312,-19.71433 -42.70206,-33.05781 -5.20225,-5.61851 -9.79433,-11.76453 -14.0932,-18.09136 -0.38501,-0.45162 -0.56501,-1.21147 -1.27571,-1.17349 -3.67505,-0.75722 -7.32366,-1.54181 -11.09625,-1.95088 -4.09058,-0.44757 -8.2094,-0.56873 -12.32218,-0.54164 z m 591.02558,0.0273 c -6.29112,0.20485 -12.61468,0.61074 -18.7791,1.94984 -0.80684,0.21809 -1.70101,0.32519 -2.43493,0.69216 -4.40967,5.60621 -8.40725,11.65909 -13.15898,17.05964 -11.46876,13.21579 -25.28386,24.34385 -40.49363,32.97406 -6.12936,3.49098 -12.51383,6.50831 -18.89598,9.50383 -13.57463,6.26033 -27.70651,11.43708 -42.34536,14.56756 -6.4655,1.42917 -13.04952,2.31088 -19.6656,2.60037 -6.58203,0.362 -13.18202,0.36391 -19.7682,0.1051 8.56641,7.24328 16.13322,15.68098 22.37022,25.00664 5.50831,8.27762 9.77642,17.3933 12.42971,26.98266 3.52097,12.16034 5.09674,24.90729 4.43977,37.55694 -0.17816,2.71892 -0.46042,5.43128 -0.86585,8.12552 2.48891,0.70814 5.0706,1.27015 7.67304,1.0114 4.37467,-0.21707 8.80092,-0.54938 13.01754,-1.80632 6.6565,-2.15436 12.55629,-6.42379 16.95897,-11.83285 4.4317,-5.44322 7.33213,-12.15662 8.00136,-19.16083 0.37294,-3.84832 0.0333,-7.84664 1.42556,-11.53113 0.94942,-2.73047 3.06635,-5.07561 5.83111,-6.02266 2.11831,-0.81403 4.45373,-0.69012 6.61352,-0.11382 3.2166,0.7716 6.32144,2.10657 9.66363,2.26192 4.81413,0.41603 9.65962,0.47518 14.48626,0.27577 2.00559,-0.11337 4.00898,-0.30518 5.98622,-0.66679 0.40091,-0.0716 1.14817,-0.22461 1.67713,-0.3438 5.24957,-1.2646 10.1584,-3.62397 14.88352,-6.18643 1.90595,-1.09722 3.7077,-2.36752 5.42754,-3.73627 0.34218,-0.27535 0.94655,-0.76217 1.37561,-1.13493 4.5419,-3.95899 8.86948,-8.26885 12.17857,-13.33393 1.91712,-2.93734 3.22051,-6.21327 4.5668,-9.43657 2.76843,-6.87067 4.18064,-14.31739 3.82175,-21.72991 -0.0462,-0.94394 -0.10943,-2.13541 -0.2104,-3.17217 -0.0966,-1.08315 -0.20929,-2.10114 -0.3433,-3.10879 -0.25723,-1.97559 -0.58816,-3.94534 -0.96089,-5.82934 -0.24832,-1.34481 -0.51331,-2.57785 -0.80058,-3.95589 -1.33917,-6.24447 -2.6522,-12.49526 -3.97315,-18.7442 8.02003,3.47357 15.96839,7.1096 23.97262,10.61629 3.06524,1.198 6.41102,0.9569 9.63503,1.01488 2.49275,-0.029 5.08474,0.11256 7.41867,-0.92823 5.94611,-2.48823 11.43848,-6.54158 14.74448,-12.16027 1.26806,-2.46519 1.3343,-5.2997 1.64956,-7.99649 0.19098,-2.59816 0.26825,-5.26753 -0.35983,-7.81223 -0.97029,-2.80666 -2.42477,-5.42278 -3.97083,-7.94693 -2.09639,-3.20293 -5.05298,-5.85683 -8.56475,-7.41459 -2.42561,-1.18169 -4.9785,-2.0829 -7.5663,-2.83769 -0.73162,-0.21211 -1.72392,-0.48691 -2.56423,-0.69607 -4.23473,-1.05184 -8.49082,-2.13767 -12.86304,-2.40838 -1.26409,-0.0986 -2.83025,-0.17667 -4.13815,-0.20952 -2.50773,-0.066 -5.01671,-0.0568 -7.52511,-0.0476 z m -372.26593,84.95506 c -6.75731,2.40071 -13.32315,5.67325 -19.31426,9.73716 -3.10947,2.11354 -5.97842,4.35849 -8.78192,6.89985 -8.91683,8.0835 -15.89,18.23768 -20.44331,29.36685 -2.09823,5.12774 -3.81837,10.44356 -4.73705,15.91585 -0.14648,0.94861 -0.26134,1.88327 -0.377,2.75885 -0.20585,1.69706 -0.34484,3.29793 -0.45973,4.92332 -0.12383,1.76648 -0.20051,3.7271 -0.22811,5.59667 -0.0681,4.1885 5e-4,8.38575 0.40045,12.55778 0.0889,0.78891 0.20167,1.83285 0.34718,2.71872 1.2508,8.14593 5.51947,15.96506 12.05253,21.09399 2.90535,2.25963 6.23401,3.96581 9.75219,5.04226 0.32173,0.0892 1.06019,0.30762 1.54694,0.42393 6.97381,1.76619 14.57932,0.69492 20.86146,-2.77955 2.37762,-1.29885 4.46385,-3.05135 6.35856,-4.97382 2.34392,-2.19936 4.68523,-4.40151 7.03117,-6.59873 7.16705,5.04387 13.97623,10.58179 21.3533,15.32676 1.85944,1.1881 3.90789,2.3705 5.75905,3.37632 11.56293,6.20653 24.35848,10.05551 37.39157,11.49796 3.9855,0.3769 8.13015,0.4183 12.04368,0.2583 4.84964,-0.21931 9.72216,-0.77995 14.44478,-1.61304 9.19698,-1.61058 18.3703,-4.29491 26.82998,-8.41868 4.20605,-2.08256 8.14437,-4.65786 12.05293,-7.24377 2.77886,-1.89386 5.53863,-3.84998 8.11099,-6.00773 1.95451,-3.13313 5.83969,-4.84624 9.47355,-4.2468 3.49269,0.48289 6.19053,2.99897 8.769,5.17022 2.64506,2.30668 5.82742,3.91274 9.08361,5.16918 4.4791,1.64521 9.34467,2.42228 14.10213,1.86419 4.49189,-0.60946 8.87049,-2.1583 12.68384,-4.62084 0.33393,-0.22485 0.94397,-0.62682 1.37209,-0.95115 4.76601,-3.46692 8.16393,-8.57904 10.01927,-14.13451 1.78169,-5.47561 2.74123,-11.20129 3.14981,-16.93802 0.31594,-4.65574 0.16664,-9.51611 -0.38563,-14.0373 -0.37142,-3.04797 -0.91336,-6.07507 -1.63165,-9.06049 -0.21502,-0.85659 -0.48834,-1.95605 -0.75914,-2.90069 -4.25325,-15.12095 -12.97131,-28.94208 -24.75794,-39.32219 -0.6173,-0.53064 -1.42792,-1.23419 -2.13882,-1.81048 -7.77164,-6.38771 -16.77203,-11.24788 -26.34586,-14.32639 -0.76184,-0.26171 -1.52304,-0.52373 -2.2857,-0.78355 -7.7388,3.94305 -15.66366,7.57081 -23.92107,10.29406 -9.68366,3.29328 -19.63047,5.8992 -29.76704,7.32916 -9.10937,1.07592 -18.29839,0.68645 -27.44881,0.74368 -7.82769,-0.0272 -15.70546,-0.55958 -23.32519,-2.44912 -15.43589,-3.33648 -30.43939,-8.71484 -44.41297,-16.0815 -1.15628,0.41109 -2.31259,0.8222 -3.46886,1.23329 z" />
  </g>
</svg>
